<svg width="512" height="512" viewBox="0 0 512 512" fill="none" xmlns="http://www.w3.org/2000/svg">
  <rect width="512" height="512" rx="112" fill="#2E68FF"/>
  <path fill-rule="evenodd" clip-rule="evenodd" d="M304 152C304 125.49 282.51 104 256 104C229.49 104 208 125.49 208 152V208H152C125.49 208 104 229.49 104 256C104 282.51 125.49 304 152 304H208V360C208 386.51 229.49 408 256 408C282.51 408 304 386.51 304 360V304H360C386.51 304 408 282.51 408 256C408 229.49 386.51 208 360 208H304V152Z" fill="white"/>
</svg>